<svg id="svg" version="1.1" xmlns="http://www.w3.org/2000/svg" xmlns:xlink="http://www.w3.org/1999/xlink" width="400" height="400" viewBox="0, 0, 400,400"><g id="svgg"><path id="path0" d="M141.948 22.984 C -16.943 79.597,-28.951 297.237,122.850 369.140 C 163.728 388.503,236.272 388.503,277.150 369.140 C 418.665 302.109,420.632 102.126,280.457 32.848 C 243.213 14.440,178.801 9.854,141.948 22.984 M256.000 44.283 C 390.693 92.375,401.392 283.429,272.946 346.911 C 191.327 387.249,93.292 354.273,53.089 272.957 C -11.966 141.371,117.928 -5.015,256.000 44.283 M96.000 200.000 L 96.000 280.000 200.000 280.000 L 304.000 280.000 304.000 200.000 L 304.000 120.000 200.000 120.000 L 96.000 120.000 96.000 200.000 M287.756 139.000 C 287.215 145.642,207.668 210.000,200.000 210.000 C 192.332 210.000,112.785 145.642,112.244 139.000 C 112.110 137.350,151.600 136.000,200.000 136.000 C 248.400 136.000,287.890 137.350,287.756 139.000 M137.042 190.919 L 148.085 202.526 139.042 210.368 C 134.069 214.682,125.950 221.592,121.000 225.725 L 112.000 233.240 112.000 202.479 C 112.000 168.100,114.317 167.031,137.042 190.919 M288.000 202.268 L 288.000 232.536 269.579 217.441 L 251.158 202.346 267.424 187.173 C 288.544 167.472,288.000 167.073,288.000 202.268 M200.096 232.000 C 208.861 232.000,219.000 228.853,224.447 224.443 L 233.780 216.885 260.756 237.443 C 275.594 248.749,287.793 259.350,287.867 261.000 C 287.940 262.650,248.400 264.000,200.000 264.000 C 100.528 264.000,103.011 265.081,139.135 237.491 L 165.987 216.982 175.533 224.491 C 181.021 228.808,191.463 232.000,200.096 232.000 " stroke="none" fill="#000000" fill-rule="evenodd"></path></g></svg>